<svg width="87" height="54" viewBox="0 0 87 54" fill="none" xmlns="http://www.w3.org/2000/svg">
<path d="M74.8461 53.5546H46.5262L46.3938 53.5252C38.5315 51.7889 28.0943 47.7916 22.9885 38.5903C20.0309 33.2638 20.2222 28.6338 20.2615 28.0354C20.286 19.4619 27.2703 12.4923 35.8487 12.4923C44.4417 12.4923 51.4359 19.4865 51.4359 28.0795C51.4359 28.7613 50.8816 29.3106 50.2048 29.3106C49.523 29.3106 48.9737 28.7564 48.9737 28.0795C48.9737 20.8451 43.088 14.9594 35.8536 14.9594C28.6191 14.9594 22.7334 20.8451 22.7334 28.0795L22.7285 28.1825C22.6746 28.8839 21.6838 45.4864 46.8009 51.0876H74.851C80.1873 51.0876 84.5329 46.742 84.5329 41.4056V19.7562C84.5329 14.1501 79.9715 9.58873 74.3654 9.58873H60.6616C57.2872 9.58873 54.1138 8.27426 51.7301 5.89057L51.2838 5.44424C49.3612 3.52159 46.8107 2.46707 44.0935 2.46707H32.126C29.3597 2.46707 26.6768 3.61478 24.764 5.62081C22.3901 8.11241 19.0549 9.53968 15.6167 9.53968H12.6837C7.09228 9.53968 2.53089 14.0913 2.51618 19.6826L2.46713 40.925C2.46223 43.5147 3.46279 45.9523 5.29225 47.7867C7.12171 49.6211 9.55445 50.6314 12.1441 50.6314H31.2333C31.9151 50.6314 32.4644 51.1857 32.4644 51.8625C32.4644 52.5394 31.9102 53.0936 31.2333 53.0936H12.1441C8.89232 53.0936 5.84158 51.8282 3.54617 49.5279C1.25076 47.2276 -0.00975262 44.1719 5.6825e-05 40.9201L0.049104 19.6777C0.0638182 12.7277 5.73368 7.07261 12.6837 7.07261H15.6167C18.383 7.07261 21.0658 5.9249 22.9787 3.91887C25.3526 1.42727 28.6829 0 32.126 0H44.0935C47.4679 0 50.6413 1.31447 53.025 3.69816L53.4713 4.14449C55.394 6.06714 57.9444 7.12165 60.6616 7.12165H74.3654C81.3301 7.12165 87 12.7915 87 19.7562V41.4106C86.9951 48.1104 81.546 53.5546 74.8461 53.5546Z" fill="white"/>
<path d="M41.6214 18.9419C43.8874 20.227 48.8166 24.1753 46.5752 33.4648C46.5752 33.4648 46.5752 24.4254 40.5571 20.7861C40.1009 20.5114 39.9146 19.9474 40.1255 19.4569C40.3756 18.8782 41.0721 18.6329 41.6214 18.9419Z" fill="white"/>
</svg>
